<svg width="171" height="62" viewBox="0 0 171 62" fill="none" xmlns="http://www.w3.org/2000/svg">
<g clip-path="url(#clip0_195_6351)">
<path fill-rule="evenodd" clip-rule="evenodd" d="M95.1066 12.76L76.3266 20.87L86.4666 30.35L95.1166 12.76H95.1066ZM104.577 20.73L87.5866 42.53L70.7466 23.29L75.5566 4.95L94.6466 8.41L104.567 20.74L104.577 20.73Z" fill="#E63946"/>
<path fill-rule="evenodd" clip-rule="evenodd" d="M9.24656 22.84C10.3766 19.12 13.7266 16.64 17.7666 16.64C21.8066 16.64 25.2166 19.01 26.3466 22.84H9.24656ZM34.5466 25.97C34.5466 21.38 32.9266 17.45 29.6366 14.26C26.3466 11.08 22.4066 9.46001 17.7666 9.46001C13.1266 9.46001 8.97656 11.02 5.67656 14.21C2.39656 17.39 0.726562 21.27 0.726562 25.96C0.726562 30.65 2.39656 34.59 5.68656 37.78C8.97656 40.96 13.0266 42.53 17.7766 42.53C23.7666 42.53 29.1066 39.62 32.2866 35.08L26.4566 31.3C24.8966 33.94 21.3866 35.67 17.7666 35.67C13.8866 35.67 10.5366 33.19 9.24656 29.47H34.1166C34.3866 28.23 34.5466 27.04 34.5466 25.96V25.97Z" fill="#1D3557"/>
<path fill-rule="evenodd" clip-rule="evenodd" d="M47.6166 23.7C47.6166 21.76 48.2666 20.09 49.6166 18.74C50.9666 17.34 52.5866 16.64 54.4766 16.64C56.3666 16.64 57.9266 17.34 59.2766 18.74C60.6266 20.09 61.2766 21.76 61.2766 23.7V41.61H68.9366V22.73C68.9366 18.79 67.8066 15.61 65.5366 13.18C63.3266 10.7 60.4066 9.46001 56.7966 9.46001C52.2666 9.46001 48.8666 11.67 47.1366 14.86H47.0266V10.38H39.9566V41.62H47.6166V23.7Z" fill="#1D3557"/>
<path fill-rule="evenodd" clip-rule="evenodd" d="M106.797 7.30001C108.467 8.97001 111.167 8.97001 112.837 7.30001C114.507 5.63001 114.507 2.93001 112.837 1.26001C111.167 -0.409993 108.467 -0.409993 106.797 1.26001C105.127 2.93001 105.127 5.63001 106.797 7.30001ZM105.987 41.61H113.647V10.37H105.987V41.61Z" fill="#1D3557"/>
<path fill-rule="evenodd" clip-rule="evenodd" d="M121.097 32.39C121.097 38 124.927 41.62 130.597 41.62H134.107V34.28H130.597C129.567 34.28 128.767 33.47 128.767 32.39V17.07H134.107V10.38H128.767V3.3H121.107V10.37H118.247V17.06H121.107V32.38L121.097 32.39Z" fill="#1D3557"/>
<path fill-rule="evenodd" clip-rule="evenodd" d="M145.267 22.84C146.397 19.12 149.747 16.64 153.787 16.64C157.827 16.64 161.237 19.01 162.367 22.84H145.267ZM170.567 25.97C170.567 21.38 168.947 17.45 165.657 14.26C162.367 11.08 158.427 9.46001 153.787 9.46001C149.147 9.46001 144.997 11.02 141.697 14.21C138.407 17.39 136.737 21.28 136.737 25.97C136.737 30.66 138.407 34.6 141.697 37.79C144.987 40.97 149.037 42.54 153.787 42.54C159.777 42.54 165.117 39.63 168.297 35.09L162.467 31.31C160.907 33.95 157.397 35.68 153.777 35.68C149.897 35.68 146.547 33.2 145.257 29.48H170.127C170.397 28.24 170.557 27.05 170.557 25.97H170.567Z" fill="#1D3557"/>
<path fill-rule="evenodd" clip-rule="evenodd" d="M165.227 59.35V54.52H166.587C168.027 54.52 169.007 55.52 169.007 56.94V56.96C169.007 58.38 168.037 59.35 166.587 59.35H165.227ZM163.467 60.94H166.597C169.117 60.94 170.857 59.19 170.857 56.93V56.91C170.857 54.65 169.117 52.92 166.597 52.92H163.467V60.94ZM152.357 60.94H158.467V59.37H154.117V57.69H157.897V56.12H154.117V54.49H158.417V52.92H152.367V60.94H152.357ZM139.867 60.94H141.607V55.84L145.487 60.94H146.987V52.92H145.247V57.86L141.487 52.92H139.857V60.94H139.867ZM132.657 60.94H134.417V52.92H132.657V60.94ZM121.627 60.94H123.387V57.84H127.217V56.24H123.387V54.53H127.727V52.93H121.617V60.95L121.627 60.94ZM110.517 60.94H116.627V59.37H112.277V57.69H116.057V56.12H112.277V54.49H116.577V52.92H110.527V60.94H110.517ZM99.8866 59.35V54.52H101.247C102.687 54.52 103.667 55.52 103.667 56.94V56.96C103.667 58.38 102.697 59.35 101.247 59.35H99.8866ZM98.1266 60.94H101.257C103.777 60.94 105.517 59.19 105.517 56.93V56.91C105.517 54.65 103.777 52.92 101.257 52.92H98.1266V60.94ZM87.0166 60.94H93.1266V59.37H88.7766V57.69H92.5566V56.12H88.7766V54.49H93.0766V52.92H87.0266V60.94H87.0166ZM77.0566 56.82V54.52H78.8066C79.6666 54.52 80.1966 54.91 80.1966 55.66V55.68C80.1966 56.36 79.7066 56.81 78.8466 56.81H77.0566V56.82ZM75.2966 60.94H77.0566V58.37H78.4466L80.1666 60.94H82.2266L80.2666 58.08C81.2866 57.7 81.9866 56.89 81.9866 55.59V55.57C81.9866 54.81 81.7466 54.18 81.2966 53.74C80.7666 53.21 79.9766 52.93 78.9566 52.93H75.2866V60.95L75.2966 60.94ZM63.9466 61.05C65.6766 61.05 66.8866 60.16 66.8866 58.56V58.54C66.8866 57.14 65.9666 56.56 64.3466 56.13C62.9566 55.78 62.6166 55.6 62.6166 55.08V55.06C62.6166 54.67 62.9766 54.36 63.6466 54.36C64.3166 54.36 65.0166 54.66 65.7266 55.15L66.6466 53.82C65.8366 53.17 64.8366 52.8 63.6666 52.8C62.0266 52.8 60.8566 53.76 60.8566 55.22V55.24C60.8566 56.83 61.8966 57.28 63.5166 57.69C64.8566 58.03 65.1366 58.26 65.1366 58.71V58.73C65.1366 59.2 64.7066 59.49 63.9766 59.49C63.0566 59.49 62.3066 59.11 61.5866 58.52L60.5466 59.77C61.5066 60.63 62.7366 61.05 63.9466 61.05ZM52.2666 60.94H54.0266V54.55H56.4666V52.92H49.8266V54.55H52.2666V60.94ZM37.9066 60.94H39.6466V55.84L43.5266 60.94H45.0266V52.92H43.2866V57.86L39.5266 52.92H37.8966V60.94H37.9066ZM26.7966 60.94H32.9066V59.37H28.5566V57.69H32.3366V56.12H28.5566V54.49H32.8566V52.92H26.8066V60.94H26.7966ZM17.3166 61H18.8766L22.1166 52.92H20.2166L18.1166 58.57L16.0166 52.92H14.0666L17.3066 61H17.3166ZM3.64656 60.94H9.75656V59.37H5.37656V57.69H9.15656V56.12H5.37656V54.49H9.67656V52.92H3.62656V60.94H3.64656Z" fill="#1D3557"/>
</g>
<defs>
<clipPath id="clip0_195_6351">
<rect width="170.12" height="61.06" fill="white" transform="translate(0.726562)"/>
</clipPath>
</defs>
</svg>
