<svg width="25" height="24" viewBox="0 0 25 24" fill="none" xmlns="http://www.w3.org/2000/svg">
<path d="M17.7613 9.23L19.2333 7.758C21.1123 8.842 22.3633 10.34 22.3633 12C22.3633 15.314 17.4053 17.993 12.3633 18C11.3372 17.9999 10.314 17.8927 9.31028 17.68L11.0573 15.934C11.4833 15.978 11.9193 16.001 12.3603 16H12.3623C11.9473 16 11.5473 15.937 11.1713 15.82L13.1523 13.838C13.6223 13.636 13.9993 13.259 14.2023 12.789L16.1823 10.808C16.3687 11.4051 16.4125 12.0376 16.3101 12.6547C16.2077 13.2719 15.962 13.8563 15.5928 14.3613C15.2235 14.8662 14.741 15.2775 14.1839 15.5621C13.6269 15.8467 13.0108 15.9967 12.3853 16C16.6303 15.985 20.3633 13.816 20.3633 12C20.3633 11.057 19.3413 10.014 17.7613 9.23ZM8.45928 12.875C8.32823 12.2904 8.33016 11.6838 8.46494 11.1001C8.59973 10.5164 8.86391 9.97035 9.23799 9.50239C9.61207 9.03443 10.0865 8.65647 10.6262 8.39643C11.1659 8.13639 11.7572 8.00091 12.3563 8C8.13828 7.985 4.36328 10.178 4.36328 12C4.36328 12.896 5.26728 13.877 6.69028 14.644L5.23228 16.1C3.49728 15.028 2.36328 13.585 2.36328 12C2.36328 8.686 7.34728 5.983 12.3633 6C13.2773 6.003 14.1903 6.094 15.0723 6.262L13.2953 8.038C13.0053 8.016 12.7113 8.003 12.4153 8C12.6973 8.004 12.9723 8.037 13.2383 8.096L8.45828 12.875H8.45928ZM21.4553 2.707C21.6428 2.89453 21.7481 3.14883 21.7481 3.414C21.7481 3.67916 21.6428 3.93347 21.4553 4.121L4.48528 21.091C4.3931 21.1866 4.28281 21.2628 4.16084 21.3153C4.03888 21.3678 3.90768 21.3955 3.7749 21.3967C3.64212 21.398 3.51043 21.3728 3.3875 21.3226C3.26457 21.2724 3.15286 21.1982 3.05891 21.1044C2.96495 21.0106 2.89062 20.899 2.84025 20.7761C2.78988 20.6532 2.76448 20.5216 2.76554 20.3888C2.7666 20.256 2.79409 20.1248 2.84642 20.0028C2.89874 19.8807 2.97484 19.7703 3.07028 19.678L20.0403 2.708C20.1332 2.61502 20.2434 2.54126 20.3648 2.49094C20.4862 2.44061 20.6164 2.41471 20.7478 2.41471C20.8792 2.41471 21.0093 2.44061 21.1307 2.49094C21.2521 2.54126 21.3624 2.61402 21.4553 2.707Z" fill="#E63946"/>
</svg>
