<svg width="25" height="24" viewBox="0 0 25 24" fill="none" xmlns="http://www.w3.org/2000/svg">
<g clip-path="url(#clip0_205_11712)">
<path d="M21.6966 3.33333H3.02995C2.3227 3.33333 1.64443 3.61428 1.14433 4.11438C0.644233 4.61447 0.363281 5.29275 0.363281 5.99999L0.363281 8.99999H24.3633V5.99999C24.3633 5.29275 24.0823 4.61447 23.5822 4.11438C23.0821 3.61428 22.4039 3.33333 21.6966 3.33333Z" fill="#007A3D"/>
<path d="M0.363281 18C0.363281 18.7072 0.644233 19.3855 1.14433 19.8856C1.64443 20.3857 2.3227 20.6667 3.02995 20.6667H21.6966C22.4039 20.6667 23.0821 20.3857 23.5822 19.8856C24.0823 19.3855 24.3633 18.7072 24.3633 18V15H0.363281V18Z" fill="#CE1126"/>
<path d="M0.363281 9H24.3633V15H0.363281V9Z" fill="#EEEEEE"/>
<path d="M1.16662 4.092C0.912073 4.34026 0.709846 4.637 0.571872 4.9647C0.433897 5.29241 0.362972 5.64443 0.363282 6V18C0.363282 18.748 0.671282 19.4233 1.16662 19.908L6.36328 15V8.99999L1.16662 4.092Z" fill="#141414"/>
</g>
<defs>
<clipPath id="clip0_205_11712">
<rect width="24" height="24" fill="white" transform="translate(0.363281)"/>
</clipPath>
</defs>
</svg>
