<svg width="40" height="39" viewBox="0 0 40 39" fill="none" xmlns="http://www.w3.org/2000/svg">
<rect x="1.21094" y="0.75" width="37.4774" height="37.5002" rx="18.7387" fill="white" fill-opacity="0.2"/>
<rect x="1.21094" y="0.75" width="37.4774" height="37.5002" rx="18.7387" stroke="#E63946"/>
<path d="M10.7274 27.2839L11.3344 23.1219C11.3714 22.8499 11.4954 22.5969 11.6894 22.4019L23.4504 10.6249C23.6029 10.4709 23.7924 10.3587 24.0008 10.2989C24.2092 10.2392 24.4294 10.2341 24.6404 10.2839C25.7199 10.5829 26.6984 11.1682 27.4724 11.9779C28.2799 12.7572 28.8612 13.7407 29.1544 14.8239C29.2043 15.0349 29.1991 15.2551 29.1394 15.4635C29.0797 15.6719 28.9674 15.8614 28.8134 16.0139L17.0394 27.7759C16.8439 27.9691 16.5908 28.0934 16.3184 28.1299L12.1574 28.7369C11.9608 28.7656 11.7603 28.7476 11.572 28.6842C11.3837 28.6209 11.213 28.5141 11.0737 28.3725C10.9345 28.2309 10.8305 28.0584 10.7703 27.8691C10.7102 27.6798 10.6954 27.479 10.7274 27.2829M21.2254 12.8649L26.5884 18.2279" stroke="#E63946" stroke-width="1.5" stroke-linecap="round" stroke-linejoin="round"/>
</svg>
