<svg width="25" height="24" viewBox="0 0 25 24" fill="none" xmlns="http://www.w3.org/2000/svg">
<path d="M18.3633 8H17.3633V6C17.3633 3.24 15.1233 1 12.3633 1C9.60328 1 7.36328 3.24 7.36328 6V8H6.36328C5.26328 8 4.36328 8.9 4.36328 10V20C4.36328 21.1 5.26328 22 6.36328 22H18.3633C19.4633 22 20.3633 21.1 20.3633 20V10C20.3633 8.9 19.4633 8 18.3633 8ZM9.36328 6C9.36328 4.34 10.7033 3 12.3633 3C14.0233 3 15.3633 4.34 15.3633 6V8H9.36328V6ZM18.3633 20H6.36328V10H18.3633V20ZM12.3633 17C13.4633 17 14.3633 16.1 14.3633 15C14.3633 13.9 13.4633 13 12.3633 13C11.2633 13 10.3633 13.9 10.3633 15C10.3633 16.1 11.2633 17 12.3633 17Z" fill="#E63946"/>
</svg>
