<?xml version="1.0" encoding="utf-8"?>
<!-- Generator: Adobe Illustrator 27.0.0, SVG Export Plug-In . SVG Version: 6.00 Build 0)  -->
<svg version="1.1" id="Layer_1" xmlns="http://www.w3.org/2000/svg" x="0px" y="0px" viewBox="0 0 55.9 64.6" style="enable-background:new 0 0 55.9 64.6;" xml:space="preserve">
<style type="text/css">
	.st0{fill:#4CB4E7;}
</style>
<polyline class="st0" points="0,59.6 27.9,59.4 27.9,64.5 0,64.7 "/>
<polyline class="st0" points="0,51.1 27.9,50.9 27.9,56 0,56.2 "/>
<polyline class="st0" points="0,42.7 27.9,42.5 27.9,47.5 0,47.8 "/>
<polyline class="st0" points="0,34.2 42,33.9 42,39 0,39.3 "/>
<polyline class="st0" points="0,25.7 42,25.4 42,30.5 0,30.8 "/>
<polyline class="st0" points="0,17.3 55.9,16.8 56,21.9 0,22.3 "/>
<polyline class="st0" points="0,8.8 55.9,8.4 56,13.4 0,13.9 "/>
<polyline class="st0" points="0,0.3 55.9,-0.1 56,5 0,5.4 "/>
<path class="st0" d="M0-0.1"/>
<path class="st0" d="M0-0.1"/>
<path class="st0" d="M0-0.1"/>
</svg>
