<svg width="16" height="16" viewBox="0 0 16 16" fill="none" xmlns="http://www.w3.org/2000/svg">
<path fill-rule="evenodd" clip-rule="evenodd" d="M13.8492 2.5232C13.4692 2.5912 12.9332 2.76719 12.0732 3.05319L5.58119 5.2182C4.75319 5.4942 4.16919 5.68919 3.74919 5.85319C3.59504 5.9113 3.44415 5.97773 3.29719 6.0522C3.21119 6.0972 3.18119 6.12219 3.17919 6.12219C3.08288 6.21543 3.00629 6.32709 2.95398 6.45052C2.90168 6.57395 2.87472 6.70664 2.87472 6.84069C2.87472 6.97475 2.90168 7.10744 2.95398 7.23087C3.00629 7.3543 3.08288 7.46596 3.17919 7.5592C3.21618 7.58656 3.25569 7.61034 3.29719 7.6302C3.39719 7.6832 3.54219 7.7482 3.74919 7.83019C4.16919 7.9932 4.75319 8.18819 5.58119 8.46419L5.63719 8.48319C5.91019 8.57319 6.15019 8.6532 6.37119 8.7702C6.90395 9.05186 7.33953 9.48744 7.62119 10.0202C7.73819 10.2402 7.81819 10.4802 7.90819 10.7542L7.92819 10.8102C8.20319 11.6382 8.39819 12.2222 8.56219 12.6422C8.61981 12.7965 8.68626 12.9475 8.76119 13.0942C8.80619 13.1802 8.83119 13.2102 8.83119 13.2122C8.92443 13.3085 9.03609 13.3851 9.15952 13.4374C9.28295 13.4897 9.41564 13.5167 9.54969 13.5167C9.68375 13.5167 9.81644 13.4897 9.93987 13.4374C10.0633 13.3851 10.175 13.3085 10.2682 13.2122C10.2956 13.1752 10.3193 13.1357 10.3392 13.0942C10.3922 12.9942 10.4572 12.8492 10.5392 12.6412C10.7022 12.2212 10.8972 11.6382 11.1732 10.8112L13.3362 4.3202C13.6232 3.4602 13.7992 2.9222 13.8662 2.5432L13.8712 2.5202C13.8635 2.5215 13.8559 2.52284 13.8482 2.5242M13.4982 0.555195C14.0482 0.457195 14.8032 0.428195 15.3832 1.0082C15.9632 1.5882 15.9332 2.3422 15.8362 2.8932C15.7402 3.4352 15.5132 4.1142 15.2582 4.8802L15.2342 4.9522L13.0702 11.4422L13.0602 11.4722C12.7962 12.2642 12.5862 12.8962 12.4012 13.3682C12.2282 13.8132 12.0232 14.2732 11.7132 14.5952C11.4333 14.8865 11.0974 15.1182 10.7257 15.2765C10.354 15.4348 9.95418 15.5164 9.55019 15.5164C9.14621 15.5164 8.74638 15.4348 8.3747 15.2765C8.00301 15.1182 7.66713 14.8865 7.38719 14.5952C7.07719 14.2732 6.87219 13.8132 6.69919 13.3682C6.51419 12.8962 6.30419 12.2642 6.03919 11.4712L6.02919 11.4432C5.90919 11.0822 5.88219 11.0102 5.85319 10.9552C5.75927 10.7774 5.61395 10.6321 5.43619 10.5382C5.38119 10.5082 5.30919 10.4822 4.94819 10.3612L4.92019 10.3512C4.12719 10.0872 3.49519 9.8772 3.02219 9.69219C2.57819 9.51919 2.11819 9.31419 1.79619 9.00419C1.50492 8.72426 1.27318 8.38837 1.11489 8.01669C0.956594 7.64501 0.875 7.24518 0.875 6.8412C0.875 6.43721 0.956594 6.03738 1.11489 5.6657C1.27318 5.29402 1.50492 4.95813 1.79619 4.67819C2.11819 4.3682 2.57819 4.1632 3.02219 3.9902C3.64983 3.75599 4.28266 3.53593 4.92019 3.33019L4.94819 3.3202L11.4392 1.15719L11.5112 1.1332C12.2772 0.878195 12.9562 0.651195 13.4982 0.555195Z" fill="#A8DADC"/>
</svg>
