<svg width="370" height="31" viewBox="0 0 370 31" fill="none" xmlns="http://www.w3.org/2000/svg">
<rect opacity="0.5" x="0.226562" y="15.44" width="158" height="1" rx="0.5" fill="#457B9D"/>
<path d="M181.952 22.1C180.8 22.1 179.904 21.8867 179.264 21.46C178.635 21.0333 178.192 20.404 177.936 19.572C177.691 18.7293 177.568 17.6947 177.568 16.468C177.568 15.2413 177.696 14.2013 177.952 13.348C178.208 12.4947 178.651 11.844 179.28 11.396C179.92 10.9373 180.811 10.708 181.952 10.708C183.093 10.708 183.979 10.932 184.608 11.38C185.248 11.828 185.696 12.484 185.952 13.348C186.208 14.2013 186.336 15.2413 186.336 16.468C186.336 17.7267 186.208 18.7773 185.952 19.62C185.707 20.452 185.264 21.076 184.624 21.492C183.995 21.8973 183.104 22.1 181.952 22.1ZM181.952 20.964C182.795 20.964 183.435 20.804 183.872 20.484C184.309 20.164 184.608 19.6733 184.768 19.012C184.928 18.34 185.008 17.492 185.008 16.468C185.008 15.476 184.923 14.6387 184.752 13.956C184.592 13.2627 184.293 12.74 183.856 12.388C183.419 12.0253 182.784 11.844 181.952 11.844C181.12 11.844 180.485 12.0253 180.048 12.388C179.611 12.74 179.307 13.2573 179.136 13.94C178.976 14.6227 178.896 15.4653 178.896 16.468C178.896 17.46 178.976 18.292 179.136 18.964C179.296 19.6253 179.595 20.1267 180.032 20.468C180.469 20.7987 181.109 20.964 181.952 20.964ZM188.386 21.94V13.94H189.618V15.012C189.821 14.8733 190.077 14.724 190.386 14.564C190.696 14.3933 191.037 14.2333 191.41 14.084C191.784 13.9347 192.157 13.828 192.53 13.764V15.028C192.168 15.1027 191.8 15.204 191.426 15.332C191.053 15.4493 190.706 15.5773 190.386 15.716C190.077 15.8547 189.821 15.9773 189.618 16.084V21.94H188.386Z" fill="#457B9D"/>
<rect opacity="0.5" x="211.227" y="15.44" width="158" height="1" rx="0.5" fill="#457B9D"/>
</svg>
