<svg width="25" height="24" viewBox="0 0 25 24" fill="none" xmlns="http://www.w3.org/2000/svg">
<g clip-path="url(#clip0_205_11708)">
<path d="M16.8633 1.5C17.2611 1.5 17.6426 1.65804 17.9239 1.93934C18.2052 2.22064 18.3633 2.60218 18.3633 3V21C18.3633 21.3978 18.2052 21.7794 17.9239 22.0607C17.6426 22.342 17.2611 22.5 16.8633 22.5H7.86328C7.46546 22.5 7.08393 22.342 6.80262 22.0607C6.52132 21.7794 6.36328 21.3978 6.36328 21V3C6.36328 2.60218 6.52132 2.22064 6.80262 1.93934C7.08393 1.65804 7.46546 1.5 7.86328 1.5H16.8633ZM7.86328 0C7.06763 0 6.30457 0.316071 5.74196 0.87868C5.17935 1.44129 4.86328 2.20435 4.86328 3V21C4.86328 21.7956 5.17935 22.5587 5.74196 23.1213C6.30457 23.6839 7.06763 24 7.86328 24H16.8633C17.6589 24 18.422 23.6839 18.9846 23.1213C19.5472 22.5587 19.8633 21.7956 19.8633 21V3C19.8633 2.20435 19.5472 1.44129 18.9846 0.87868C18.422 0.316071 17.6589 0 16.8633 0L7.86328 0Z" fill="#E63946"/>
<path d="M12.3633 21C12.7611 21 13.1426 20.842 13.4239 20.5607C13.7052 20.2794 13.8633 19.8978 13.8633 19.5C13.8633 19.1022 13.7052 18.7206 13.4239 18.4393C13.1426 18.158 12.7611 18 12.3633 18C11.9655 18 11.5839 18.158 11.3026 18.4393C11.0213 18.7206 10.8633 19.1022 10.8633 19.5C10.8633 19.8978 11.0213 20.2794 11.3026 20.5607C11.5839 20.842 11.9655 21 12.3633 21Z" fill="#E63946"/>
</g>
<defs>
<clipPath id="clip0_205_11708">
<rect width="24" height="24" fill="white" transform="translate(0.363281)"/>
</clipPath>
</defs>
</svg>
