<svg width="25" height="24" viewBox="0 0 25 24" fill="none" xmlns="http://www.w3.org/2000/svg">
<path d="M4.36328 18C4.36328 16.9391 4.78471 15.9217 5.53485 15.1716C6.285 14.4214 7.30242 14 8.36328 14H16.3633C17.4241 14 18.4416 14.4214 19.1917 15.1716C19.9419 15.9217 20.3633 16.9391 20.3633 18C20.3633 18.5304 20.1526 19.0391 19.7775 19.4142C19.4024 19.7893 18.8937 20 18.3633 20H6.36328C5.83285 20 5.32414 19.7893 4.94907 19.4142C4.57399 19.0391 4.36328 18.5304 4.36328 18Z" stroke="#E63946" stroke-width="1.5" stroke-linejoin="round"/>
<path d="M12.3633 10C14.0201 10 15.3633 8.65685 15.3633 7C15.3633 5.34315 14.0201 4 12.3633 4C10.7064 4 9.36328 5.34315 9.36328 7C9.36328 8.65685 10.7064 10 12.3633 10Z" stroke="#E63946" stroke-width="1.5"/>
</svg>
