<svg width="19" height="18" viewBox="0 0 19 18" fill="none" xmlns="http://www.w3.org/2000/svg">
<path d="M1.36328 15C1.36328 13.9391 1.78471 12.9217 2.53485 12.1716C3.285 11.4214 4.30242 11 5.36328 11H13.3633C14.4241 11 15.4416 11.4214 16.1917 12.1716C16.9419 12.9217 17.3633 13.9391 17.3633 15C17.3633 15.5304 17.1526 16.0391 16.7775 16.4142C16.4024 16.7893 15.8937 17 15.3633 17H3.36328C2.83285 17 2.32414 16.7893 1.94907 16.4142C1.57399 16.0391 1.36328 15.5304 1.36328 15Z" stroke="#E63946" stroke-width="1.5" stroke-linejoin="round"/>
<path d="M9.36328 7C11.0201 7 12.3633 5.65685 12.3633 4C12.3633 2.34315 11.0201 1 9.36328 1C7.70643 1 6.36328 2.34315 6.36328 4C6.36328 5.65685 7.70643 7 9.36328 7Z" stroke="#E63946" stroke-width="1.5"/>
</svg>
