<svg width="101" height="144" viewBox="0 0 101 144" fill="none" xmlns="http://www.w3.org/2000/svg">
<g clip-path="url(#clip0_926_16786)">
<path d="M25.3324 75.5764C24.0774 75.5764 22.912 75.5764 21.7914 75.5764C17.3988 75.5764 12.9613 75.5764 8.56864 75.4864C5.1621 75.3964 2.74166 73.597 1.30733 70.538C-0.0821851 67.5689 0.366044 64.7348 2.24861 62.0806C15.83 42.9616 29.4113 23.7976 42.903 4.58857C44.8304 1.84442 47.0716 0 50.6126 0C53.4364 0 55.7224 1.21462 57.336 3.46392C71.2311 23.0778 85.1262 42.7366 98.9765 62.3955C102.742 67.7488 99.2903 75.0815 92.7461 75.4414C87.726 75.7113 82.7058 75.5314 77.6408 75.5764C77.0133 75.5764 76.4306 75.5764 75.6686 75.5764C75.6686 76.3411 75.6686 76.926 75.6686 77.4658C75.6686 87.2727 75.6686 97.0347 75.6686 106.842C75.6686 110.575 73.6964 112.645 70.0209 112.645C57.0223 112.645 44.0236 112.645 31.0249 112.645C27.3943 112.645 25.3773 110.575 25.3773 106.977C25.3773 97.1247 25.3773 87.3177 25.3773 77.4658C25.3773 76.881 25.3773 76.3411 25.3773 75.5764H25.3324ZM35.3728 102.343H65.5834V100.499C65.5834 90.6917 65.5834 80.9297 65.5834 71.1228C65.5834 67.344 67.5556 65.3646 71.276 65.3646C76.4754 65.3646 81.6749 65.3646 86.8295 65.3646C87.3226 65.3646 87.8156 65.3196 88.5328 65.2746C75.7582 47.2352 63.163 29.3758 50.4333 11.3814C37.6587 29.4658 25.0187 47.2802 12.2441 65.3646C13.1854 65.3646 13.7233 65.3646 14.306 65.3646C19.4606 65.3646 24.5704 65.3646 29.7251 65.3646C33.2661 65.3646 35.3279 67.4339 35.3279 70.9428C35.3279 77.1959 35.3279 83.4489 35.3279 89.702C35.3279 93.8407 35.3279 98.0244 35.3279 102.343H35.3728Z" fill="white"/>
<path d="M50.4777 144C44.068 144 37.7032 144 31.2935 144C27.1698 144 25.332 142.156 25.332 138.107C25.332 132.529 25.332 126.95 25.332 121.372C25.332 118.043 27.3939 115.929 30.7108 115.929C43.9336 115.929 57.1115 115.929 70.3343 115.929C73.5615 115.929 75.6682 118.043 75.6682 121.237C75.6682 127.085 75.6682 132.888 75.6682 138.737C75.6682 141.841 73.6063 143.955 70.4239 143.955C63.7901 143.955 57.1115 143.955 50.4777 143.955V144ZM35.462 133.788H65.5382V126.23H35.462V133.788Z" fill="white"/>
</g>
<defs>
<clipPath id="clip0_926_16786">
<rect width="100" height="144" fill="white" transform="translate(0.5)"/>
</clipPath>
</defs>
</svg>
